# xmcd
#
# Track frame offsets:
#	182
#	12625
#	24652
#	36565
#	48602
#	62165
#	76200
#	88907
#	101615
#	113880
#	126695
#	138727
#	151760
#	165092
#	177647
#	190832
#	200535
#	213967
#	224822
#	236062
#	248225
#	260387
#	272797
#	285687
#	298267
#	310640
#	323155
#
# Disc length: 4489 seconds
#
# Revision: 1
# Processed by: cddbd v1.4b42PL1 Copyright (c) Steve Scherf et al.
# Submitted via: audiograbber 1.80
#
DISCID=a911871b
DTITLE=Various Artist - Wanderers Swing: Texas Dance Hall Music
DYEAR=1900
DGENRE=
TTITLE0=Rip Ramsey and his Texas Wanderers - Wanderers Swing
TTITLE1=Billy Briggs X I T Boys - Panhandle Shuffle
TTITLE2=Tommy Elliott and the Line Riders - Sold Out Doc (I done took my sign b
TTITLE2=oard down)
TTITLE3=Keith Loyd Sons of the Golden West - My Western Union Baby
TTITLE4=Troy Jordan and his Cross-B-Boys - Don't Cry On My Shoulder
TTITLE5=Don McCord and his Seven Chords - Can't Live Without You
TTITLE6=Lone Star Playboys - Banjo Boogie
TTITLE7=Sonny Hall and his Ozark Boys - Better Make Up Your Mind
TTITLE8=Eddie Miller and his Oklahomans - Don't Break My Heart Any More
TTITLE9=Tiny Colbert and his Entertainers - I Wish You Felt The Way I Do
TTITLE10=Tiny Colbert - Holes In My Soles
TTITLE11=Miller Bros Orchestra - Shadows On My Memories
TTITLE12=Dub Adams and his K-Bar Ranch Hands - Income Tax
TTITLE13=Texas Tophands - You Can't Have Your Cake And Eat It
TTITLE14=Jimmie Revard and the Oklahoma Playboys - Holdin' The Sack
TTITLE15=Grouchy and the Texas Pioneers - Beaumont Rig
TTITLE16=Howard Wusterhausen and the Lone Star Ramblers - When You Are Near
TTITLE17=Shorty Bates and his Texas Saddle Pals - You're There
TTITLE18=Eddie Miller and his Oklahomans - Release Me
TTITLE19=Jesse James and All The Boys - Darling I Don't Understand
TTITLE20="Texas" Bill Strength and his Saddlepals - Black Coffee Blues
TTITLE21=Shelly Lee Alley and his Alley Cats - Low Down Blues
TTITLE22=Elmer Christian and his Bar X Cowboys - A Rainy Sunday Night
TTITLE23=Buster Martin's Bronco Busters - Herbie's Steel Guitar Polka
TTITLE24=Jerry Irby and his Texas Ranchers - Trouble In Mind
TTITLE25=Hoyle Nix and his West Texas Cowboys - Choose The One You Want
TTITLE26=Melody Masters - Desau Waltz
EXTD=late 40's to early 50's country swing
EXTT0=
EXTT1=
EXTT2=
EXTT3=
EXTT4=
EXTT5=
EXTT6=
EXTT7=
EXTT8=
EXTT9=
EXTT10=
EXTT11=
EXTT12=
EXTT13=
EXTT14=
EXTT15=
EXTT16=
EXTT17=
EXTT18=
EXTT19=
EXTT20=
EXTT21=
EXTT22=
EXTT23=
EXTT24=
EXTT25=
EXTT26=
PLAYORDER=
